<?xml version="1.0" encoding="utf-8"?>
<svg version="1.1" id="concept" xmlns="http://www.w3.org/2000/svg" xmlns:xlink="http://www.w3.org/1999/xlink" x="0px" y="0px"
	 viewBox="0 0 154.5 135.5" style="enable-background:new 0 0 154.5 135.5;" xml:space="preserve">
<style type="text/css">
	.background{fill:none;stroke:#B4CA43;stroke-width:2;stroke-linecap:round;stroke-miterlimit:10;}
	.bottom-line{fill:none;stroke:#B4CA43;stroke-width:3;stroke-linecap:round;stroke-miterlimit:10;}
	.icon{fill:none;stroke:#9D9D9C;stroke-linecap:round;stroke-linejoin:round;}
	.code-icon{fill:none;stroke:#9D9D9C;stroke-width:3;stroke-linecap:round;stroke-linejoin:round;}
</style>
<linearGradient id="svg_concept" gradientUnits="userSpaceOnUse" x1="0" y1="0" x2="0.7071" y2="0.7071">
	<stop  offset="0" style="stop-color:#E6E6EB"/>
	<stop  offset="0.1738" style="stop-color:#E2E2E6"/>
	<stop  offset="0.352" style="stop-color:#D5D4D8"/>
	<stop  offset="0.5323" style="stop-color:#C0BFC2"/>
	<stop  offset="0.7139" style="stop-color:#A4A2A4"/>
	<stop  offset="0.8949" style="stop-color:#828282"/>
	<stop  offset="1" style="stop-color:#6B6E6E"/>
</linearGradient>
<path class="background" d="M24.1,76.8h50.6c4,0,7.2,3.2,7.2,7.2v28.9c0,4-3.2,7.2-7.2,7.2H24.1c-4,0-7.2-3.2-7.2-7.2V84
	C16.8,80,20.1,76.8,24.1,76.8z"/>
<circle class="background" cx="38.9" cy="46.3" r="15.6"/>
<circle class="background" cx="85.1" cy="25.5" r="15.6"/>
<circle class="background" cx="130.4" cy="56.8" r="15.6"/>
<circle class="background" cx="122.3" cy="109.9" r="15.6"/>
<line class="background" x1="61.9" y1="73" x2="76.6" y2="43"/>
<line class="background" x1="42.8" y1="65.9" x2="44.2" y2="73"/>
<line class="background" x1="85.1" y1="104.1" x2="102.8" y2="106.9"/>
<line class="background" x1="112.8" y1="65.9" x2="85.1" y2="80.1"/>
<line class="bottom-line" x1="8.5" y1="125" x2="90.2" y2="125"/>
<path class="icon" d="M83.9,32.1c-3.2,0-5.8-2.6-5.8-5.8c0-2.8,2-5.3,4.8-5.8c4.7-0.9,6-1.3,7.7-3.4c0.8,1.7,1.7,3.5,1.7,6.7
	C92.2,28.4,88.2,32.1,83.9,32.1z"/>
<path class="icon" d="M76.4,33c0-2.5,1.5-4.5,4.2-5c2-0.4,4.1-1.7,4.9-2.5"/>
<circle class="icon" cx="124" cy="50.8" r="1.6"/>
<path class="icon" d="M132,51.6l2.4-2.4l2.4,2.4"/>
<path class="icon" d="M132,55.6l2.4-2.4l2.4,2.4"/>
<path class="icon" d="M134.3,58.8v-9.5"/>
<path class="icon" d="M134.3,58.8h-7.9l-4,6.4h15.9L134.3,58.8z"/>
<path class="icon" d="M127.2,58.8v6.4"/>
<path class="icon" d="M128,58.8l4,6.4"/>
<path class="icon" d="M31.9,43.8c0-1.9,1.6-3.5,3.5-3.5h7c1.9,0,3.5,1.6,3.5,3.5v8.7c0,1-0.8,1.7-1.7,1.7H33.7c-1,0-1.7-0.8-1.7-1.7
	V43.8z"/>
<path class="icon" d="M36.3,40.3v-1.7c0-1,0.8-1.7,1.7-1.7h1.7c1,0,1.7,0.8,1.7,1.7v1.7"/>
<path class="icon" d="M35.4,53.3V49c0-1,0.8-1.7,1.7-1.7h3.5c1,0,1.7,0.8,1.7,1.7v4.3"/>
<path class="icon" d="M35.4,43.8h7"/>
<path class="icon" d="M35.4,50.7h7"/>
<path class="icon" d="M114.3,101.9v5.6c0,0.9,0.7,1.6,1.6,1.6h3.2c0.9,0,1.6-0.7,1.6-1.6v-5.6"/>
<path class="icon" d="M117.5,101.9V118"/>
<path class="icon" d="M128.8,112.4v-10.5l0,0c-2.2,0-4,1.8-4,4v4.8c0,0.9,0.7,1.6,1.6,1.6H128.8z M128.8,112.4v5.6"/>
<polyline class="code-icon" points="55.1,107.9 64.4,98.6 55.1,89.4 "/>
<polyline class="code-icon" points="42.8,89.4 33.5,98.6 42.8,107.9 "/>
</svg>
